<?xml version="1.0" encoding="UTF-8" standalone="no"?>
<svg
   xmlns:svg="http://www.w3.org/2000/svg"
   xmlns="http://www.w3.org/2000/svg"
   version="1.1"
   width="520"
   height="153.15404"
   id="ishaimika-logo-horizontal.svg">
  <path
     d="M 58.557456,27.066003 C 53.842016,27.066003 50,30.859087 50,35.574561 c 0,4.715444 3.842016,8.557456 8.557456,8.557456 4.715472,0 8.557456,-3.842012 8.557456,-8.557456 0,-4.715474 -3.841984,-8.508558 -8.557456,-8.508558 z m 182.885094,0 c -4.71547,0 -8.55747,3.793084 -8.55747,8.508558 0,4.715444 3.842,8.557456 8.55747,8.557456 4.71546,0 8.55745,-3.842012 8.55745,-8.557456 0,-4.715474 -3.84199,-8.508558 -8.55745,-8.508558 z M 50,50.048888 l 0,53.056232 17.114912,0 0,-53.056232 -17.114912,0 z m 76.72371,0 0,53.056232 17.06601,0 0,-21.711488 12.42056,0 0,21.711488 17.06601,0 0,-53.056232 -17.06601,0 0,21.711492 -12.42056,0 0,-21.711492 -17.06601,0 z m 106.16137,0 0,53.056232 17.11492,0 0,-53.056232 -17.11492,0 z m 37.11492,1.5e-5 0,53.056217 17.11491,0 0,-35.990207 15.06112,15.01223 15.06114,-15.06114 0,36.039117 17.06602,0 0,-53.056217 -17.06602,0 -15.06114,15.06112 -15.06112,-15.06112 -17.11491,0 z m 72.46944,0 0,53.056217 17.06601,0 0,-53.056217 -17.06601,0 z m 25.23227,0 0,53.056217 17.06601,0 0,-18.288487 18.33741,18.288487 17.06602,0 -26.55258,-26.552557 26.55258,-26.50366 -17.06602,0 -18.33741,18.2885 0,-18.2885 -17.06601,0 z m 64.25426,0 c -4.71544,0 -8.55745,3.841982 -8.55745,8.557457 l 0,44.49876 17.06603,0 0,-21.711487 12.42053,0 0,21.711487 17.11492,0 0,-44.49876 c 0,-4.715475 -3.84199,-8.557427 -8.55745,-8.557457 l -8.55747,0 -12.42053,0 -8.50858,0 z m 8.50858,9.63325 12.42053,0 0,12.07824 -12.42053,0 0,-12.07824 z M 350.97799,109.022 c -4.71544,0 -8.50855,3.79311 -8.50855,8.50856 0,4.71546 3.79311,8.55747 8.50855,8.55747 4.71548,0 8.55746,-3.84201 8.55746,-8.55747 0,-4.71545 -3.84198,-8.50856 -8.55746,-8.50856 z m -260.3423,-5.96578 -8.459663,0 c -4.715454,0 -8.557454,-3.841979 -8.557454,-8.557453 l 0,-8.508559 17.017117,0 0,7.383864 12.51834,0 0,-7.383864 -24.156483,-11.149144 c -1.066694,-0.429932 -2.091614,-1.064726 -2.88508,-1.85819 -1.545107,-1.545099 -2.493894,-3.608032 -2.493894,-5.96577 l 0,-8.508558 c 0,-4.715474 3.793094,-8.557456 8.50856,-8.557456 l 8.557457,0 12.42056,0 8.55744,0 c 4.71546,0 8.50856,3.841982 8.50856,8.557456 l 0,8.508558 -17.066,0.09779 0,-7.481663 -12.42055,0 0,7.481663 24.15647,11.051345 c 1.0667,0.429934 2.09164,1.064727 2.88508,1.858191 1.54509,1.5451 2.445,3.608033 2.445,5.965769 l 0,8.508559 c 0,4.715476 -3.84199,8.557462 -8.55746,8.557462 l -8.45966,0 z m 97.72616,-53.013811 c -4.71545,0 -8.55746,3.841984 -8.55746,8.557459 l 0,44.498782 17.06601,0 0,-21.711497 12.42055,0 0,21.711497 17.1149,0 0,-44.498782 c 0,-4.715475 -3.84197,-8.557428 -8.55745,-8.557459 l -8.55745,0 -12.42055,0 -8.50855,0 z m 8.50855,9.633254 12.42055,0 0,12.07824 -12.42055,0 0,-12.07824 z"
     id="ishaimika-logo-horizontal"
     style="fill:#ffffff;fill-opacity:1;stroke:none"/>
</svg>
